<?xml version="1.0" encoding="UTF-8"?>
<svg id="Layer_2" data-name="Layer 2" xmlns="http://www.w3.org/2000/svg" viewBox="0 0 282.83 52.29">
  <g id="Layer_1-2" data-name="Layer 1">
    <g>
      <g>
        <path d="m41.49,46.36c0,2.37-1.61,4.09-3.8,4.05-2.05-.03-3.55-1.71-3.56-3.99-.01-2.51,1.66-4.64,3.64-4.62,2.03.01,3.72,2.08,3.72,4.56Z"/>
        <path d="m239.82,47.53c0,2.29-1.68,4.05-3.85,4.01-2.07-.03-3.59-1.7-3.6-3.94-.01-2.49,1.66-4.57,3.68-4.58,2.06,0,3.77,2.03,3.78,4.5Z"/>
      </g>
      <path d="m29.49,38.84c0,3.46-1.09,6.48-3.28,9.08-2.59,2.91-6.12,4.37-10.58,4.37-1.96,0-3.94-.46-5.94-1.37-1.96-.82-3.14-1.23-3.55-1.23-1.55,0-2.41.84-2.59,2.53h-1.5l-2.05-15.5h1.64c2.59,8.97,7.05,13.45,13.38,13.45,2.78,0,5.14-.96,7.1-2.87,1.96-1.87,2.94-3.91,2.94-6.14,0-2.37-.73-4.48-2.18-6.35-1.64-2.09-4.87-4.78-9.69-8.05-4.37-2.91-6.99-4.85-7.85-5.8-2.23-2.23-3.35-4.98-3.35-8.26,0-4,1.2-7.17,3.62-9.49C7.78,1.07,10.49,0,13.72,0c1.55,0,3.41.43,5.6,1.3,2.18.86,3.43,1.3,3.75,1.3.86,0,1.39-.32,1.57-.96.14-.55.25-1.09.34-1.64h1.5l1.5,15.56h-1.64c-.73-3.73-2.02-6.8-3.89-9.22-2.28-2.91-5.07-4.37-8.4-4.37-1.96,0-3.73.64-5.32,1.91-1.87,1.59-2.8,3.64-2.8,6.14,0,3.23,1.98,6.37,5.94,9.42,3.69,2.64,7.39,5.3,11.13,7.99,4.09,3.46,6.26,7.26,6.48,11.4Z"/>
      <path d="m282.83,51.4h-12.08v-1.37c1.91-.23,3.09-.8,3.55-1.71.45-.91.68-3,.68-6.28l-.2-36.72-9.97,46.08h-.75l-10.03-46.01-.41-.14v35.29c0,3.37.09,5.37.27,6.01.5,2.09,1.84,3.25,4.03,3.48v1.37h-10.03v-1.37c1.37-.32,2.25-.91,2.66-1.77.55-1.27.82-3.84.82-7.71V8.6c0-2.55-.27-4.25-.82-5.12-.41-.55-1.27-.89-2.59-1.02v-1.3h8.94l8.4,40,8.33-40h9.22v1.3c-1.82.18-2.96.96-3.41,2.32-.18.55-.27,2.03-.27,4.44v33.79c0,2.5.09,4.03.27,4.57.41,1.41,1.55,2.23,3.41,2.46v1.37Z"/>
    </g>
  </g>
</svg>